<svg width="80" height="80" viewBox="0 0 80 80" fill="none" xmlns="http://www.w3.org/2000/svg">
<circle cx="40" cy="40" r="40" fill="#FC4B37" fill-opacity="0.12"/>
<path d="M40.3472 27.3222C40.0563 25.9433 38.8013 24.9841 37.3944 25.0652C37.0373 25.0858 36.6853 25.1601 36.3503 25.2855C35.0305 25.7796 34.27 27.1641 34.5609 28.543L34.9723 30.4929C34.2403 30.8796 33.5637 31.346 32.9513 31.8784L31.2809 30.79C30.1002 30.0207 28.5345 30.2298 27.597 31.282C27.359 31.5491 27.1627 31.8504 27.0145 32.176C26.4307 33.4586 26.8719 34.9754 28.0526 35.7447L29.723 36.8331C29.4834 37.6083 29.3301 38.4157 29.2721 39.2415L27.3222 39.6529C25.9433 39.9438 24.984 41.1988 25.0651 42.6057C25.0857 42.9628 25.16 43.3148 25.2854 43.6498C25.7795 44.9695 27.164 45.7301 28.5429 45.4391L30.4928 45.0278C30.8795 45.7598 31.3459 46.4364 31.8783 47.0488L30.7899 48.7192C30.0206 49.8999 30.2297 51.4656 31.2819 52.4031C31.549 52.641 31.8504 52.8374 32.1759 52.9856C33.4585 53.5694 34.9753 53.1282 35.7446 51.9475L36.833 50.2771C37.6082 50.5167 38.4156 50.67 39.2414 50.728L39.6528 52.6779C39.9437 54.0568 41.1987 55.0161 42.6056 54.935C42.9627 54.9144 43.3147 54.8401 43.6497 54.7147C44.9695 54.2206 45.73 52.8361 45.4391 51.4572L45.0277 49.5073C45.7597 49.1206 46.4363 48.6542 47.0487 48.1218L48.7191 49.2102C49.8998 49.9795 51.4655 49.7704 52.403 48.7182C52.641 48.4511 52.8373 48.1497 52.9855 47.8242C53.5693 46.5416 53.1281 45.0248 51.9474 44.2555L50.277 43.1671C50.5166 42.3919 50.6699 41.5845 50.7279 40.7587L52.6779 40.3473C54.0568 40.0564 55.016 38.8014 54.9349 37.3945C54.9143 37.0374 54.84 36.6854 54.7146 36.3504C54.2205 35.0306 52.836 34.2701 51.4571 34.561L49.5072 34.9724C49.1205 34.2404 48.6541 33.5637 48.1217 32.9514L49.2101 31.281C49.9794 30.1003 49.7703 28.5345 48.7181 27.5971C48.451 27.3591 48.1497 27.1628 47.8241 27.0146C46.5415 26.4307 45.0247 26.872 44.2554 28.0527L43.167 29.7231C42.3918 29.4835 41.5844 29.3302 40.7586 29.2722L40.3472 27.3222Z" stroke="#FC4B37" stroke-width="3" stroke-linecap="round" stroke-linejoin="round"/>
<path d="M35.8711 40.8699C35.39 38.5895 36.8486 36.351 39.1289 35.8699C41.4092 35.3888 43.6478 36.8473 44.1289 39.1277C44.61 41.408 43.1514 43.6466 40.8711 44.1277C38.5908 44.6088 36.3522 43.1502 35.8711 40.8699Z" stroke="#FC4B37" stroke-width="3"/>
</svg>
